Hanif_Medium_2_5_grf.mot
version=1
nRows=37
nColumns=19
inDegrees=yes
endheader
time	right_ground_force_vx	right_ground_force_vy	right_ground_force_vz	right_ground_force_px	right_ground_force_py	right_ground_force_pz	right_ground_torque_x	right_ground_torque_y	right_ground_torque_z	left_ground_force_vx	left_ground_force_vy	left_ground_force_vz	left_ground_force_px	left_ground_force_py	left_ground_force_pz	left_ground_torque_x	left_ground_torque_y	left_ground_torque_z
4.925000	-9.745710	226.156000	16.252600	0.260569	0.000000	-1.416470	-20.110300	-5.037580	13.469500	-0.915439	225.755000	-16.931900	0.239938	0.000000	-0.984319	18.358600	0.655342	9.023270
4.930000	-9.509530	223.169000	16.279800	0.261367	0.000000	-1.416560	-19.827000	-4.976740	13.467100	-0.846141	223.902000	-16.795100	0.239139	0.000000	-0.983984	18.132900	0.616485	8.771600
4.935000	-8.763480	221.205000	16.005300	0.260023	0.000000	-1.416290	-19.716500	-4.984470	13.043200	-1.105380	222.441000	-16.230500	0.238658	0.000000	-0.984277	18.079500	0.678558	8.601840
4.940000	-7.550310	219.306000	15.559100	0.261286	0.000000	-1.417010	-19.400700	-4.991080	13.201500	-1.820820	223.929000	-15.506500	0.237897	0.000000	-0.983297	17.980800	0.732835	8.486410
4.945000	-6.885300	218.615000	15.341300	0.259366	0.000000	-1.417010	-19.346800	-4.939080	12.738600	-2.356430	219.555000	-14.308000	0.238462	0.000000	-0.984726	17.942500	0.828534	8.438990
4.950000	-6.297410	219.915000	14.758300	0.259799	0.000000	-1.416570	-19.566300	-4.944960	12.915800	-3.476060	219.284000	-13.245600	0.237653	0.000000	-0.984501	17.870200	0.884351	8.250580
4.955000	-5.621290	221.087000	14.567900	0.259279	0.000000	-1.417440	-19.489500	-4.897410	12.872900	-3.072860	222.436000	-13.272000	0.237984	0.000000	-0.985151	18.271400	0.898747	8.440580
4.960000	-5.403150	222.313000	13.719400	0.258139	0.000000	-1.417260	-19.641500	-4.813100	12.706900	-2.692780	230.142000	-13.914300	0.238176	0.000000	-0.984732	18.806500	1.058070	8.767270
4.965000	-4.844230	225.138000	13.658400	0.257812	0.000000	-1.417690	-19.801100	-4.954470	12.788900	-2.379820	237.910000	-14.524200	0.238041	0.000000	-0.985297	19.577900	0.879420	9.042310
4.970000	-4.478560	226.874000	12.993800	0.257721	0.000000	-1.417590	-19.987100	-4.780750	12.887100	-1.617080	243.845000	-15.163300	0.237895	0.000000	-0.985648	20.152500	0.838824	9.232320
4.975000	-4.030130	225.215000	12.001300	0.257589	0.000000	-1.417110	-19.953800	-4.748190	12.772800	-0.630825	245.233000	-15.089100	0.237521	0.000000	-0.986075	20.372300	0.756007	9.192810
4.980000	-3.862970	222.940000	10.442000	0.256827	0.000000	-1.416760	-19.830800	-4.687660	12.493400	0.247321	246.553000	-15.586300	0.236497	0.000000	-0.985308	20.293400	0.662228	8.991290
4.985000	-4.089050	223.979000	9.829590	0.255822	0.000000	-1.416220	-20.039700	-4.670310	12.338200	0.628791	249.708000	-15.327800	0.236635	0.000000	-0.984347	20.313000	0.559512	9.145090
4.990000	-4.414310	230.399000	9.902620	0.256161	0.000000	-1.418150	-20.169300	-4.702740	12.778000	0.942598	255.665000	-16.217700	0.237045	0.000000	-0.984964	20.955600	0.597833	9.466380
4.995000	-5.351560	236.962000	10.405300	0.255035	0.000000	-1.416800	-21.056000	-4.638150	12.883500	0.655539	259.234000	-16.516700	0.236379	0.000000	-0.985201	21.309300	0.545813	9.430850
5.000000	-5.293480	240.821000	10.590500	0.253998	0.000000	-1.417710	-21.183700	-4.583630	12.847900	0.871918	261.664000	-17.161700	0.237868	0.000000	-0.984620	21.356900	0.567830	9.909380
5.005000	-5.276290	242.744000	10.954800	0.254084	0.000000	-1.417750	-21.342800	-4.671670	12.965500	0.134150	264.662000	-17.765300	0.237078	0.000000	-0.984831	21.657500	0.581684	9.817680
5.010000	-5.320350	241.630000	10.557300	0.253719	0.000000	-1.418430	-21.082100	-4.522000	12.827600	-0.205128	268.077000	-19.428100	0.237403	0.000000	-0.985612	22.146500	0.558231	10.040300
5.015000	-5.162820	243.880000	10.136200	0.253589	0.000000	-1.418160	-21.350600	-4.392790	12.928100	-0.076451	268.850000	-19.539400	0.237396	0.000000	-0.985566	22.197900	0.637016	10.061300
5.020000	-5.091060	242.076000	9.688530	0.253029	0.000000	-1.418630	-21.078200	-4.394230	12.699600	-0.516773	269.084000	-19.905400	0.237824	0.000000	-0.984959	22.054200	0.557398	10.195500
5.025000	-5.515800	241.481000	10.181800	0.253383	0.000000	-1.417390	-21.321800	-4.322470	12.752200	-1.122320	271.601000	-19.926400	0.238196	0.000000	-0.984310	22.085000	0.595605	10.392800
5.030000	-6.334330	245.589000	10.032900	0.253463	0.000000	-1.417920	-21.547900	-4.310480	12.998500	-1.281860	275.347000	-20.048500	0.239104	0.000000	-0.985401	22.689700	0.681012	10.782300
5.035000	-6.516800	248.336000	10.557100	0.252673	0.000000	-1.418120	-21.741900	-4.291910	12.946100	-2.092280	281.098000	-19.905800	0.238812	0.000000	-0.984962	23.040900	0.758232	10.923300
5.040000	-6.564390	250.755000	10.635700	0.252405	0.000000	-1.419850	-21.521200	-4.268260	13.007500	-2.043960	284.906000	-19.926600	0.239258	0.000000	-0.983937	23.060500	0.815640	11.194100
5.045000	-5.792940	247.821000	11.669600	0.252812	0.000000	-1.419590	-21.343900	-4.099380	12.947500	-1.778990	283.852000	-20.658100	0.239371	0.000000	-0.985019	23.282200	0.789495	11.188000
5.050000	-5.216030	247.732000	11.778700	0.251612	0.000000	-1.419280	-21.420700	-4.032720	12.644500	-1.299810	286.455000	-20.041400	0.238632	0.000000	-0.984351	23.304100	0.714741	11.077900
5.055000	-4.747030	249.319000	12.119900	0.251148	0.000000	-1.420600	-21.233700	-4.060520	12.604600	-1.443610	286.053000	-20.563000	0.239371	0.000000	-0.985149	23.500300	0.694784	11.279000
5.060000	-5.486400	249.411000	12.649800	0.251018	0.000000	-1.420270	-21.318300	-3.993760	12.578400	-1.152680	285.646000	-19.555600	0.238641	0.000000	-0.985101	23.452100	0.755303	11.044100
5.065000	-5.132280	251.461000	12.677500	0.250176	0.000000	-1.420620	-21.406800	-4.099970	12.464700	-1.490490	282.785000	-18.373800	0.239017	0.000000	-0.985282	23.269300	0.631104	11.047100
5.070000	-4.972880	255.365000	12.118800	0.249826	0.000000	-1.421710	-21.466600	-4.040470	12.580500	-0.864063	283.280000	-17.333600	0.238213	0.000000	-0.984002	22.946900	0.512485	10.838500
5.075000	-4.743990	254.584000	11.483400	0.249397	0.000000	-1.421760	-21.389800	-3.938990	12.441500	-1.237460	283.020000	-16.681100	0.238728	0.000000	-0.984813	23.155800	0.502494	10.975200
5.080000	-4.608580	257.134000	11.027200	0.248854	0.000000	-1.422130	-21.512500	-3.837000	12.437100	-1.196320	284.060000	-16.371500	0.239568	0.000000	-0.985067	23.313300	0.470370	11.255400
5.085000	-4.851050	255.574000	11.202400	0.248714	0.000000	-1.421320	-21.588300	-3.736610	12.328200	-1.469780	284.412000	-15.772900	0.240274	0.000000	-0.985470	23.456800	0.518967	11.467400
5.090000	-4.826930	254.301000	9.546380	0.248842	0.000000	-1.421130	-21.529000	-3.731580	12.313200	-1.740730	284.457000	-15.515000	0.240553	0.000000	-0.985114	23.359600	0.511020	11.549800
5.095000	-4.525050	252.271000	8.519180	0.248936	0.000000	-1.420790	-21.444800	-3.707310	12.247100	-2.095920	282.244000	-15.040800	0.240549	0.000000	-0.985745	23.355700	0.585440	11.455200
5.100000	-4.400990	253.304000	8.044620	0.248482	0.000000	-1.420680	-21.562800	-3.652040	12.188900	-2.622570	282.741000	-14.618000	0.240968	0.000000	-0.984983	23.181800	0.623691	11.593200
5.105000	-5.003310	256.768000	7.552230	0.248403	0.000000	-1.421600	-21.618900	-3.508510	12.348400	-3.769850	280.706000	-13.109200	0.240591	0.000000	-0.985071	23.039900	0.684866	11.401500
